<svg xmlns="http://www.w3.org/2000/svg" width="345.124" height="83" viewBox="0 0 345.124 83">
  <g id="LOGO" transform="translate(-91.876 -61)">
    <path id="Mac" d="M49.172,0H60.42L57.684-51.224h-15.2L37.088-34.2c-1.748,5.7-3.5,12.464-4.864,18.392h-.3c-1.14-6-2.66-12.388-4.332-18.316l-5.016-17.1H7.144L3.876,0H14.592l.988-19.456c.3-6.384.608-14.288.836-21.2h.152C17.86-33.972,19.532-26.676,21.2-20.6L26.676-.836H35.72l6.232-19.988c1.976-6,4.1-13.3,5.776-19.836h.152c0,7.448.228,14.9.456,21.052Zm50.92-21.964c0-8.816-3.876-16.112-16.264-16.112a30.518,30.518,0,0,0-14.44,3.344l2.128,7.448A20.9,20.9,0,0,1,81.776-30.1c5.7,0,6.764,2.812,6.764,4.864v.456c-13.148,0-21.812,4.56-21.812,14.212,0,5.928,4.484,11.4,12.008,11.4,4.408,0,8.208-1.6,10.64-4.56H89.6L90.288,0H100.7a48.165,48.165,0,0,1-.608-8.968ZM88.92-13.528a8.284,8.284,0,0,1-.228,1.976,6.386,6.386,0,0,1-6,4.256c-2.584,0-4.56-1.444-4.56-4.408,0-4.408,4.712-5.852,10.792-5.852ZM135.812-9.5A16.3,16.3,0,0,1,129.2-8.284c-5.624,0-10.184-3.648-10.184-10.412-.076-6.08,3.876-10.412,9.956-10.412a15.806,15.806,0,0,1,6.46,1.14l1.824-8.588A26.8,26.8,0,0,0,128.44-38c-13.832,0-21.28,8.892-21.28,19.76,0,11.628,7.676,19,19.684,19,4.408,0,8.284-.76,10.336-1.748Z" transform="translate(88 128)" fill="#1e79e9"/>
    <g id="Ports" transform="translate(5)">
      <rect id="BG" width="198" height="83" rx="14" transform="translate(234 61)" fill="#1e79e9"/>
      <path id="Ports-2" data-name="Ports" d="M159.3,0h11.476V-18.392a19.878,19.878,0,0,0,3.952.3c6.84,0,12.692-1.748,16.644-5.4,3.116-2.812,4.712-7.144,4.712-12.16A14.748,14.748,0,0,0,190.608-47.5c-3.42-2.736-8.512-4.1-15.656-4.1A94.82,94.82,0,0,0,159.3-50.54Zm11.476-42.408a20.665,20.665,0,0,1,4.712-.38c5.852,0,9.12,2.812,9.12,7.524,0,5.168-3.8,8.284-9.956,8.284a17.271,17.271,0,0,1-3.876-.3Zm48.26,4.332c-12.008,0-19.912,7.676-19.912,19.76,0,12.008,8.36,19.152,19.228,19.152C228.3.836,237.956-5.4,237.956-19,237.956-30.248,230.356-38.076,219.032-38.076Zm-.38,8.284c5.244,0,7.372,5.624,7.372,11.1,0,6.764-2.812,11.248-7.372,11.248-4.94,0-7.6-4.788-7.6-11.172C211.052-24.092,213.18-29.792,218.652-29.792ZM245.1,0h11.552V-18.848a13.622,13.622,0,0,1,.228-2.584c.76-3.572,3.648-5.852,7.9-5.852a17.266,17.266,0,0,1,3.116.3V-37.848a11.5,11.5,0,0,0-2.432-.228c-3.648,0-8.132,2.28-10.032,7.752h-.3l-.456-6.84H244.8c.228,3.192.3,6.764.3,12.236Zm32.072-44.08v6.916h-4.94v8.512h4.94v15.2c0,5.244,1.064,8.816,3.192,11.02A12.343,12.343,0,0,0,289.1.76a24.314,24.314,0,0,0,7.448-.988l-.076-8.74a14.206,14.206,0,0,1-3.42.3c-3.42,0-4.56-2.052-4.56-6.536V-28.652h8.284v-8.512H288.5V-47.2ZM301.34-1.824A26.251,26.251,0,0,0,313.348.836c10.64,0,16.036-5.092,16.036-12.084-.076-5.4-2.964-9.044-10.032-11.476-4.56-1.6-6-2.508-6-4.332s1.6-2.964,4.408-2.964a18.543,18.543,0,0,1,8.056,2.128l1.976-7.98a24.429,24.429,0,0,0-10.412-2.2c-9.2,0-15.124,5.244-15.124,12.236-.076,4.408,2.888,8.588,10.64,11.172,4.256,1.444,5.4,2.356,5.4,4.332,0,1.9-1.444,3.04-4.94,3.04a22.579,22.579,0,0,1-9.956-2.736Z" transform="translate(88.704 128)" fill="#fff"/>
    </g>
  </g>
</svg>
